<svg width="28" height="28" viewBox="0 0 28 28" fill="none" xmlns="http://www.w3.org/2000/svg">
<path fill-rule="evenodd" clip-rule="evenodd" d="M2.33325 14C2.33325 13.3557 2.85559 12.8333 3.49991 12.8333H24.4999C25.1442 12.8333 25.6666 13.3557 25.6666 14C25.6666 14.6444 25.1442 15.1667 24.4999 15.1667H3.49991C2.85559 15.1667 2.33325 14.6444 2.33325 14Z" fill="#3EBDF2"/>
<path fill-rule="evenodd" clip-rule="evenodd" d="M16.6752 6.17496C17.1307 5.71935 17.8695 5.71935 18.3251 6.17496L25.3251 13.175C25.7806 13.6305 25.7806 14.3693 25.3251 14.8249L18.3251 21.8249C17.8695 22.2804 17.1307 22.2804 16.6752 21.8249C16.2196 21.3693 16.2196 20.6305 16.6752 20.175L22.8502 13.9999L16.6752 7.82488C16.2196 7.36926 16.2196 6.63058 16.6752 6.17496Z" fill="#DD2F6C"/>
</svg>
