<svg width="556" height="358" viewBox="0 0 556 358" fill="none" xmlns="http://www.w3.org/2000/svg">
<g filter="url(#filter0_d_101_2093)">
<rect x="30" y="32" width="466" height="268" rx="30" fill="#16194F"/>
<mask id="mask0_101_2093" style="mask-type:alpha" maskUnits="userSpaceOnUse" x="30" y="32" width="466" height="268">
<rect x="30" y="32" width="466" height="268" rx="30" fill="#16194F"/>
</mask>
<g mask="url(#mask0_101_2093)">
<path d="M268.907 -9.42689C287.287 -34.4863 324.713 -34.4863 343.093 -9.42691L343.844 -8.40234C352.898 3.94133 367.498 10.9726 382.794 10.3547L384.063 10.3034C415.115 9.04901 438.45 38.3097 430.317 68.3038L429.984 69.5302C425.978 84.3046 429.585 100.104 439.604 111.677L440.436 112.638C460.777 136.133 452.449 172.62 423.928 184.963L422.762 185.467C408.713 191.547 398.609 204.217 395.808 219.267L395.576 220.516C389.889 251.068 356.169 267.307 328.737 252.703L327.615 252.106C314.103 244.913 297.897 244.913 284.385 252.106L283.263 252.703C255.831 267.307 222.111 251.068 216.424 220.516L216.192 219.267C213.391 204.217 203.287 191.547 189.238 185.467L188.072 184.963C159.551 172.62 151.223 136.133 171.564 112.638L172.396 111.677C182.415 100.104 186.022 84.3046 182.016 69.5302L181.683 68.3038C173.55 38.3097 196.885 9.04901 227.937 10.3034L229.206 10.3547C244.502 10.9726 259.102 3.94134 268.156 -8.40232L268.907 -9.42689Z" fill="#9A94FF"/>
<path d="M153.407 103.573C171.787 78.5137 209.213 78.5137 227.593 103.573L233.431 111.534C242.485 123.877 257.085 130.909 272.381 130.291L282.245 129.892C313.297 128.638 336.632 157.899 328.499 187.893L325.915 197.421C321.909 212.195 325.516 227.995 335.535 239.568L341.997 247.032C362.338 270.527 354.01 307.014 325.489 319.357L316.429 323.278C302.38 329.358 292.276 342.028 289.475 357.077L287.669 366.783C281.982 397.335 248.262 413.574 220.83 398.97L212.115 394.331C198.603 387.138 182.397 387.138 168.885 394.331L160.17 398.97C132.738 413.574 99.0182 397.335 93.3315 366.783L91.525 357.077C88.7238 342.028 78.6199 329.358 64.5711 323.278L55.5107 319.357C26.9898 307.014 18.6617 270.527 39.003 247.032L45.4648 239.568C55.4845 227.995 59.0905 212.196 55.0846 197.421L52.501 187.893C44.3684 157.899 67.703 128.638 98.7548 129.892L108.619 130.291C123.915 130.909 138.515 123.877 147.569 111.534L153.407 103.573Z" fill="#11101C"/>
<path d="M149.907 -68.4269C168.287 -93.4863 205.713 -93.4863 224.093 -68.4269L224.844 -67.4023C233.898 -55.0587 248.498 -48.0274 263.794 -48.6453L265.063 -48.6966C296.115 -49.951 319.45 -20.6903 311.317 9.30385L310.984 10.5302C306.978 25.3046 310.585 41.1038 320.604 52.6769L321.436 53.6376C341.777 77.1327 333.449 113.62 304.928 125.963L303.762 126.467C289.713 132.547 279.609 145.217 276.808 160.267L276.576 161.516C270.889 192.068 237.169 208.307 209.737 193.703L208.615 193.106C195.103 185.913 178.897 185.913 165.385 193.106L164.263 193.703C136.831 208.307 103.111 192.068 97.4244 161.516L97.1919 160.267C94.3908 145.217 84.2868 132.547 70.2381 126.467L69.0719 125.963C40.551 113.62 32.2229 77.1327 52.5642 53.6376L53.3959 52.6769C63.4155 41.1038 67.0215 25.3046 63.0156 10.5302L62.6831 9.30385C54.5504 -20.6903 77.8851 -49.951 108.937 -48.6966L110.206 -48.6453C125.502 -48.0274 140.102 -55.0587 149.156 -67.4023L149.907 -68.4269Z" fill="#2B3D67"/>
</g>
<path d="M75.6758 81.9375V99H72.7344V81.9375H75.6758ZM85.9297 81.9375L79.0156 90.1523L75.0781 94.3242L74.5625 91.4062L77.375 87.9375L82.3438 81.9375H85.9297ZM82.7656 99L77.1523 90.9141L79.1797 88.9102L86.2578 99H82.7656ZM92.9023 99.2344C91.9648 99.2344 91.1172 99.082 90.3594 98.7773C89.6094 98.4648 88.9688 98.0312 88.4375 97.4766C87.9141 96.9219 87.5117 96.2695 87.2305 95.5195C86.9492 94.7695 86.8086 93.9609 86.8086 93.0938V92.625C86.8086 91.6328 86.9531 90.7344 87.2422 89.9297C87.5312 89.125 87.9336 88.4375 88.4492 87.8672C88.9648 87.2891 89.5742 86.8477 90.2773 86.543C90.9805 86.2383 91.7422 86.0859 92.5625 86.0859C93.4688 86.0859 94.2617 86.2383 94.9414 86.543C95.6211 86.8477 96.1836 87.2773 96.6289 87.832C97.082 88.3789 97.418 89.0312 97.6367 89.7891C97.8633 90.5469 97.9766 91.3828 97.9766 92.2969V93.5039H88.1797V91.4766H95.1875V91.2539C95.1719 90.7461 95.0703 90.2695 94.8828 89.8242C94.7031 89.3789 94.4258 89.0195 94.0508 88.7461C93.6758 88.4727 93.1758 88.3359 92.5508 88.3359C92.082 88.3359 91.6641 88.4375 91.2969 88.6406C90.9375 88.8359 90.6367 89.1211 90.3945 89.4961C90.1523 89.8711 89.9648 90.3242 89.832 90.8555C89.707 91.3789 89.6445 91.9688 89.6445 92.625V93.0938C89.6445 93.6484 89.7188 94.1641 89.8672 94.6406C90.0234 95.1094 90.25 95.5195 90.5469 95.8711C90.8438 96.2227 91.2031 96.5 91.625 96.7031C92.0469 96.8984 92.5273 96.9961 93.0664 96.9961C93.7461 96.9961 94.3516 96.8594 94.8828 96.5859C95.4141 96.3125 95.875 95.9258 96.2656 95.4258L97.7539 96.8672C97.4805 97.2656 97.125 97.6484 96.6875 98.0156C96.25 98.375 95.7148 98.668 95.082 98.8945C94.457 99.1211 93.7305 99.2344 92.9023 99.2344ZM105.77 99.2344C104.832 99.2344 103.984 99.082 103.227 98.7773C102.477 98.4648 101.836 98.0312 101.305 97.4766C100.781 96.9219 100.379 96.2695 100.098 95.5195C99.8164 94.7695 99.6758 93.9609 99.6758 93.0938V92.625C99.6758 91.6328 99.8203 90.7344 100.109 89.9297C100.398 89.125 100.801 88.4375 101.316 87.8672C101.832 87.2891 102.441 86.8477 103.145 86.543C103.848 86.2383 104.609 86.0859 105.43 86.0859C106.336 86.0859 107.129 86.2383 107.809 86.543C108.488 86.8477 109.051 87.2773 109.496 87.832C109.949 88.3789 110.285 89.0312 110.504 89.7891C110.73 90.5469 110.844 91.3828 110.844 92.2969V93.5039H101.047V91.4766H108.055V91.2539C108.039 90.7461 107.938 90.2695 107.75 89.8242C107.57 89.3789 107.293 89.0195 106.918 88.7461C106.543 88.4727 106.043 88.3359 105.418 88.3359C104.949 88.3359 104.531 88.4375 104.164 88.6406C103.805 88.8359 103.504 89.1211 103.262 89.4961C103.02 89.8711 102.832 90.3242 102.699 90.8555C102.574 91.3789 102.512 91.9688 102.512 92.625V93.0938C102.512 93.6484 102.586 94.1641 102.734 94.6406C102.891 95.1094 103.117 95.5195 103.414 95.8711C103.711 96.2227 104.07 96.5 104.492 96.7031C104.914 96.8984 105.395 96.9961 105.934 96.9961C106.613 96.9961 107.219 96.8594 107.75 96.5859C108.281 96.3125 108.742 95.9258 109.133 95.4258L110.621 96.8672C110.348 97.2656 109.992 97.6484 109.555 98.0156C109.117 98.375 108.582 98.668 107.949 98.8945C107.324 99.1211 106.598 99.2344 105.77 99.2344ZM116.07 81V99H113.234V81H116.07ZM124.754 99.2344C123.816 99.2344 122.969 99.082 122.211 98.7773C121.461 98.4648 120.82 98.0312 120.289 97.4766C119.766 96.9219 119.363 96.2695 119.082 95.5195C118.801 94.7695 118.66 93.9609 118.66 93.0938V92.625C118.66 91.6328 118.805 90.7344 119.094 89.9297C119.383 89.125 119.785 88.4375 120.301 87.8672C120.816 87.2891 121.426 86.8477 122.129 86.543C122.832 86.2383 123.594 86.0859 124.414 86.0859C125.32 86.0859 126.113 86.2383 126.793 86.543C127.473 86.8477 128.035 87.2773 128.48 87.832C128.934 88.3789 129.27 89.0312 129.488 89.7891C129.715 90.5469 129.828 91.3828 129.828 92.2969V93.5039H120.031V91.4766H127.039V91.2539C127.023 90.7461 126.922 90.2695 126.734 89.8242C126.555 89.3789 126.277 89.0195 125.902 88.7461C125.527 88.4727 125.027 88.3359 124.402 88.3359C123.934 88.3359 123.516 88.4375 123.148 88.6406C122.789 88.8359 122.488 89.1211 122.246 89.4961C122.004 89.8711 121.816 90.3242 121.684 90.8555C121.559 91.3789 121.496 91.9688 121.496 92.625V93.0938C121.496 93.6484 121.57 94.1641 121.719 94.6406C121.875 95.1094 122.102 95.5195 122.398 95.8711C122.695 96.2227 123.055 96.5 123.477 96.7031C123.898 96.8984 124.379 96.9961 124.918 96.9961C125.598 96.9961 126.203 96.8594 126.734 96.5859C127.266 96.3125 127.727 95.9258 128.117 95.4258L129.605 96.8672C129.332 97.2656 128.977 97.6484 128.539 98.0156C128.102 98.375 127.566 98.668 126.934 98.8945C126.309 99.1211 125.582 99.2344 124.754 99.2344ZM134.867 88.7344V99H132.043V86.3203H134.738L134.867 88.7344ZM138.746 86.2383L138.723 88.8633C138.551 88.832 138.363 88.8086 138.16 88.793C137.965 88.7773 137.77 88.7695 137.574 88.7695C137.09 88.7695 136.664 88.8398 136.297 88.9805C135.93 89.1133 135.621 89.3086 135.371 89.5664C135.129 89.8164 134.941 90.1211 134.809 90.4805C134.676 90.8398 134.598 91.2422 134.574 91.6875L133.93 91.7344C133.93 90.9375 134.008 90.1992 134.164 89.5195C134.32 88.8398 134.555 88.2422 134.867 87.7266C135.188 87.2109 135.586 86.8086 136.062 86.5195C136.547 86.2305 137.105 86.0859 137.738 86.0859C137.91 86.0859 138.094 86.1016 138.289 86.1328C138.492 86.1641 138.645 86.1992 138.746 86.2383ZM143.539 86.3203V99H140.703V86.3203H143.539ZM140.516 82.9922C140.516 82.5625 140.656 82.207 140.938 81.9258C141.227 81.6367 141.625 81.4922 142.133 81.4922C142.633 81.4922 143.027 81.6367 143.316 81.9258C143.605 82.207 143.75 82.5625 143.75 82.9922C143.75 83.4141 143.605 83.7656 143.316 84.0469C143.027 84.3281 142.633 84.4688 142.133 84.4688C141.625 84.4688 141.227 84.3281 140.938 84.0469C140.656 83.7656 140.516 83.4141 140.516 82.9922ZM159.535 84.2109L154.438 99H151.355L157.777 81.9375H159.746L159.535 84.2109ZM163.801 99L158.691 84.2109L158.469 81.9375H160.449L166.895 99H163.801ZM163.555 92.6719V95.0039H154.273V92.6719H163.555ZM173.703 96.9844C174.164 96.9844 174.578 96.8945 174.945 96.7148C175.32 96.5273 175.621 96.2695 175.848 95.9414C176.082 95.6133 176.211 95.2344 176.234 94.8047H178.895C178.879 95.625 178.637 96.3711 178.168 97.043C177.699 97.7148 177.078 98.25 176.305 98.6484C175.531 99.0391 174.676 99.2344 173.738 99.2344C172.77 99.2344 171.926 99.0703 171.207 98.7422C170.488 98.4062 169.891 97.9453 169.414 97.3594C168.938 96.7734 168.578 96.0977 168.336 95.332C168.102 94.5664 167.984 93.7461 167.984 92.8711V92.4609C167.984 91.5859 168.102 90.7656 168.336 90C168.578 89.2266 168.938 88.5469 169.414 87.9609C169.891 87.375 170.488 86.918 171.207 86.5898C171.926 86.2539 172.766 86.0859 173.727 86.0859C174.742 86.0859 175.633 86.2891 176.398 86.6953C177.164 87.0938 177.766 87.6523 178.203 88.3711C178.648 89.082 178.879 89.9102 178.895 90.8555H176.234C176.211 90.3867 176.094 89.9648 175.883 89.5898C175.68 89.207 175.391 88.9023 175.016 88.6758C174.648 88.4492 174.207 88.3359 173.691 88.3359C173.121 88.3359 172.648 88.4531 172.273 88.6875C171.898 88.9141 171.605 89.2266 171.395 89.625C171.184 90.0156 171.031 90.457 170.938 90.9492C170.852 91.4336 170.809 91.9375 170.809 92.4609V92.8711C170.809 93.3945 170.852 93.9023 170.938 94.3945C171.023 94.8867 171.172 95.3281 171.383 95.7188C171.602 96.1016 171.898 96.4102 172.273 96.6445C172.648 96.8711 173.125 96.9844 173.703 96.9844ZM183.852 81V99H181.039V81H183.852ZM183.359 92.1914L182.445 92.1797C182.453 91.3047 182.574 90.4961 182.809 89.7539C183.051 89.0117 183.387 88.3672 183.816 87.8203C184.254 87.2656 184.777 86.8398 185.387 86.543C185.996 86.2383 186.672 86.0859 187.414 86.0859C188.039 86.0859 188.602 86.1719 189.102 86.3438C189.609 86.5156 190.047 86.793 190.414 87.1758C190.781 87.5508 191.059 88.043 191.246 88.6523C191.441 89.2539 191.539 89.9883 191.539 90.8555V99H188.703V90.832C188.703 90.2227 188.613 89.7383 188.434 89.3789C188.262 89.0195 188.008 88.7617 187.672 88.6055C187.336 88.4414 186.926 88.3594 186.441 88.3594C185.934 88.3594 185.484 88.4609 185.094 88.6641C184.711 88.8672 184.391 89.1445 184.133 89.4961C183.875 89.8477 183.68 90.2539 183.547 90.7148C183.422 91.1758 183.359 91.668 183.359 92.1914ZM202.027 96.0117V86.3203H204.863V99H202.191L202.027 96.0117ZM202.426 93.375L203.375 93.3516C203.375 94.2031 203.281 94.9883 203.094 95.707C202.906 96.418 202.617 97.0391 202.227 97.5703C201.836 98.0938 201.336 98.5039 200.727 98.8008C200.117 99.0898 199.387 99.2344 198.535 99.2344C197.918 99.2344 197.352 99.1445 196.836 98.9648C196.32 98.7852 195.875 98.5078 195.5 98.1328C195.133 97.7578 194.848 97.2695 194.645 96.668C194.441 96.0664 194.34 95.3477 194.34 94.5117V86.3203H197.164V94.5352C197.164 94.9961 197.219 95.3828 197.328 95.6953C197.438 96 197.586 96.2461 197.773 96.4336C197.961 96.6211 198.18 96.7539 198.43 96.832C198.68 96.9102 198.945 96.9492 199.227 96.9492C200.031 96.9492 200.664 96.793 201.125 96.4805C201.594 96.1602 201.926 95.7305 202.121 95.1914C202.324 94.6523 202.426 94.0469 202.426 93.375Z" fill="white"/>
<path d="M81.498 249.516V251H72.1914V249.701L76.8496 244.516C77.4225 243.878 77.8652 243.337 78.1777 242.895C78.4967 242.445 78.7181 242.045 78.8418 241.693C78.972 241.335 79.0371 240.971 79.0371 240.6C79.0371 240.131 78.9395 239.708 78.7441 239.33C78.5553 238.946 78.2754 238.64 77.9043 238.412C77.5332 238.184 77.084 238.07 76.5566 238.07C75.9251 238.07 75.3978 238.194 74.9746 238.441C74.5579 238.682 74.2454 239.021 74.0371 239.457C73.8288 239.893 73.7246 240.395 73.7246 240.961H71.918C71.918 240.16 72.0938 239.428 72.4453 238.764C72.7969 238.1 73.3177 237.572 74.0078 237.182C74.6979 236.785 75.5475 236.586 76.5566 236.586C77.4551 236.586 78.2233 236.745 78.8613 237.064C79.4993 237.377 79.9876 237.82 80.3262 238.393C80.6712 238.959 80.8438 239.623 80.8438 240.385C80.8438 240.801 80.7721 241.225 80.6289 241.654C80.4922 242.077 80.3001 242.501 80.0527 242.924C79.8118 243.347 79.5286 243.764 79.2031 244.174C78.8841 244.584 78.5423 244.988 78.1777 245.385L74.3691 249.516H81.498ZM86.0684 243.002H87.3574C87.9889 243.002 88.5098 242.898 88.9199 242.689C89.3366 242.475 89.6458 242.185 89.8477 241.82C90.056 241.449 90.1602 241.033 90.1602 240.57C90.1602 240.023 90.069 239.564 89.8867 239.193C89.7044 238.822 89.431 238.542 89.0664 238.354C88.7018 238.165 88.2396 238.07 87.6797 238.07C87.1719 238.07 86.7227 238.171 86.332 238.373C85.9479 238.568 85.6452 238.848 85.4238 239.213C85.209 239.577 85.1016 240.007 85.1016 240.502H83.2949C83.2949 239.779 83.4772 239.122 83.8418 238.529C84.2064 237.937 84.7174 237.465 85.375 237.113C86.0391 236.762 86.8073 236.586 87.6797 236.586C88.5391 236.586 89.291 236.739 89.9355 237.045C90.5801 237.344 91.0814 237.794 91.4395 238.393C91.7975 238.985 91.9766 239.724 91.9766 240.609C91.9766 240.967 91.8919 241.352 91.7227 241.762C91.5599 242.165 91.3027 242.543 90.9512 242.895C90.6061 243.246 90.1569 243.536 89.6035 243.764C89.0501 243.985 88.3861 244.096 87.6113 244.096H86.0684V243.002ZM86.0684 244.486V243.402H87.6113C88.5163 243.402 89.265 243.51 89.8574 243.725C90.4499 243.939 90.9154 244.226 91.2539 244.584C91.599 244.942 91.8398 245.336 91.9766 245.766C92.1198 246.189 92.1914 246.612 92.1914 247.035C92.1914 247.699 92.0775 248.288 91.8496 248.803C91.6283 249.317 91.3125 249.753 90.9023 250.111C90.4987 250.469 90.0234 250.74 89.4766 250.922C88.9297 251.104 88.334 251.195 87.6895 251.195C87.071 251.195 86.4883 251.107 85.9414 250.932C85.401 250.756 84.9225 250.502 84.5059 250.17C84.0892 249.831 83.7637 249.418 83.5293 248.93C83.2949 248.435 83.1777 247.872 83.1777 247.24H84.9844C84.9844 247.735 85.0918 248.168 85.3066 248.539C85.528 248.91 85.8405 249.2 86.2441 249.408C86.6543 249.61 87.1361 249.711 87.6895 249.711C88.2428 249.711 88.7181 249.617 89.1152 249.428C89.5189 249.232 89.8281 248.939 90.043 248.549C90.2643 248.158 90.375 247.667 90.375 247.074C90.375 246.482 90.2513 245.997 90.0039 245.619C89.7565 245.235 89.4049 244.952 88.9492 244.77C88.5 244.581 87.9694 244.486 87.3574 244.486H86.0684ZM100.619 236.703V251H98.8125V238.959L95.1699 240.287V238.656L100.336 236.703H100.619ZM114.857 242.758V244.926C114.857 246.091 114.753 247.074 114.545 247.875C114.337 248.676 114.037 249.32 113.646 249.809C113.256 250.297 112.784 250.652 112.23 250.873C111.684 251.088 111.065 251.195 110.375 251.195C109.828 251.195 109.324 251.127 108.861 250.99C108.399 250.854 107.982 250.635 107.611 250.336C107.247 250.03 106.934 249.633 106.674 249.145C106.413 248.656 106.215 248.064 106.078 247.367C105.941 246.671 105.873 245.857 105.873 244.926V242.758C105.873 241.592 105.977 240.616 106.186 239.828C106.4 239.04 106.703 238.409 107.094 237.934C107.484 237.452 107.953 237.107 108.5 236.898C109.053 236.69 109.672 236.586 110.355 236.586C110.909 236.586 111.417 236.654 111.879 236.791C112.348 236.921 112.764 237.133 113.129 237.426C113.493 237.712 113.803 238.096 114.057 238.578C114.317 239.053 114.516 239.636 114.652 240.326C114.789 241.016 114.857 241.827 114.857 242.758ZM113.041 245.219V242.455C113.041 241.817 113.002 241.257 112.924 240.775C112.852 240.287 112.745 239.87 112.602 239.525C112.458 239.18 112.276 238.9 112.055 238.686C111.84 238.471 111.589 238.314 111.303 238.217C111.023 238.113 110.707 238.061 110.355 238.061C109.926 238.061 109.545 238.142 109.213 238.305C108.881 238.461 108.601 238.712 108.373 239.057C108.152 239.402 107.982 239.854 107.865 240.414C107.748 240.974 107.689 241.654 107.689 242.455V245.219C107.689 245.857 107.725 246.42 107.797 246.908C107.875 247.396 107.989 247.82 108.139 248.178C108.288 248.529 108.471 248.819 108.686 249.047C108.9 249.275 109.148 249.444 109.428 249.555C109.714 249.659 110.03 249.711 110.375 249.711C110.818 249.711 111.205 249.626 111.537 249.457C111.869 249.288 112.146 249.024 112.367 248.666C112.595 248.301 112.764 247.836 112.875 247.27C112.986 246.697 113.041 246.013 113.041 245.219ZM122.221 244.086L124.184 241.391L121.234 240.512L121.693 239.047L124.643 240.131L124.555 236.771H126.039L125.941 240.189L128.852 239.105L129.301 240.6L126.303 241.488L128.227 244.135L127.016 245.043L125.209 242.23L123.441 244.975L122.221 244.086ZM130.834 244.086L132.797 241.391L129.848 240.512L130.307 239.047L133.256 240.131L133.168 236.771H134.652L134.555 240.189L137.465 239.105L137.914 240.6L134.916 241.488L136.84 244.135L135.629 245.043L133.822 242.23L132.055 244.975L130.834 244.086ZM139.447 244.086L141.41 241.391L138.461 240.512L138.92 239.047L141.869 240.131L141.781 236.771H143.266L143.168 240.189L146.078 239.105L146.527 240.6L143.529 241.488L145.453 244.135L144.242 245.043L142.436 242.23L140.668 244.975L139.447 244.086ZM148.061 244.086L150.023 241.391L147.074 240.512L147.533 239.047L150.482 240.131L150.395 236.771H151.879L151.781 240.189L154.691 239.105L155.141 240.6L152.143 241.488L154.066 244.135L152.855 245.043L151.049 242.23L149.281 244.975L148.061 244.086ZM161.635 244.086L163.598 241.391L160.648 240.512L161.107 239.047L164.057 240.131L163.969 236.771H165.453L165.355 240.189L168.266 239.105L168.715 240.6L165.717 241.488L167.641 244.135L166.43 245.043L164.623 242.23L162.855 244.975L161.635 244.086ZM170.248 244.086L172.211 241.391L169.262 240.512L169.721 239.047L172.67 240.131L172.582 236.771H174.066L173.969 240.189L176.879 239.105L177.328 240.6L174.33 241.488L176.254 244.135L175.043 245.043L173.236 242.23L171.469 244.975L170.248 244.086ZM178.861 244.086L180.824 241.391L177.875 240.512L178.334 239.047L181.283 240.131L181.195 236.771H182.68L182.582 240.189L185.492 239.105L185.941 240.6L182.943 241.488L184.867 244.135L183.656 245.043L181.85 242.23L180.082 244.975L178.861 244.086ZM187.475 244.086L189.438 241.391L186.488 240.512L186.947 239.047L189.896 240.131L189.809 236.771H191.293L191.195 240.189L194.105 239.105L194.555 240.6L191.557 241.488L193.48 244.135L192.27 245.043L190.463 242.23L188.695 244.975L187.475 244.086ZM210.58 246.215V247.699H200.307V246.635L206.674 236.781H208.148L206.566 239.633L202.357 246.215H210.58ZM208.598 236.781V251H206.791V236.781H208.598ZM214.506 244.232L213.061 243.861L213.773 236.781H221.068V238.451H215.307L214.877 242.318C215.137 242.169 215.466 242.029 215.863 241.898C216.267 241.768 216.729 241.703 217.25 241.703C217.908 241.703 218.497 241.817 219.018 242.045C219.538 242.266 219.981 242.585 220.346 243.002C220.717 243.419 221 243.92 221.195 244.506C221.391 245.092 221.488 245.746 221.488 246.469C221.488 247.152 221.394 247.781 221.205 248.354C221.023 248.926 220.746 249.428 220.375 249.857C220.004 250.281 219.535 250.609 218.969 250.844C218.409 251.078 217.748 251.195 216.986 251.195C216.413 251.195 215.87 251.117 215.355 250.961C214.848 250.798 214.392 250.554 213.988 250.229C213.591 249.896 213.266 249.486 213.012 248.998C212.764 248.503 212.608 247.924 212.543 247.26H214.262C214.34 247.794 214.496 248.243 214.73 248.607C214.965 248.972 215.271 249.249 215.648 249.438C216.033 249.62 216.479 249.711 216.986 249.711C217.416 249.711 217.797 249.636 218.129 249.486C218.461 249.337 218.741 249.122 218.969 248.842C219.197 248.562 219.369 248.223 219.486 247.826C219.61 247.429 219.672 246.983 219.672 246.488C219.672 246.039 219.61 245.622 219.486 245.238C219.363 244.854 219.177 244.519 218.93 244.232C218.689 243.946 218.393 243.725 218.041 243.568C217.689 243.406 217.286 243.324 216.83 243.324C216.225 243.324 215.766 243.406 215.453 243.568C215.147 243.731 214.831 243.952 214.506 244.232ZM232.396 242.758V244.926C232.396 246.091 232.292 247.074 232.084 247.875C231.876 248.676 231.576 249.32 231.186 249.809C230.795 250.297 230.323 250.652 229.77 250.873C229.223 251.088 228.604 251.195 227.914 251.195C227.367 251.195 226.863 251.127 226.4 250.99C225.938 250.854 225.521 250.635 225.15 250.336C224.786 250.03 224.473 249.633 224.213 249.145C223.952 248.656 223.754 248.064 223.617 247.367C223.48 246.671 223.412 245.857 223.412 244.926V242.758C223.412 241.592 223.516 240.616 223.725 239.828C223.939 239.04 224.242 238.409 224.633 237.934C225.023 237.452 225.492 237.107 226.039 236.898C226.592 236.69 227.211 236.586 227.895 236.586C228.448 236.586 228.956 236.654 229.418 236.791C229.887 236.921 230.303 237.133 230.668 237.426C231.033 237.712 231.342 238.096 231.596 238.578C231.856 239.053 232.055 239.636 232.191 240.326C232.328 241.016 232.396 241.827 232.396 242.758ZM230.58 245.219V242.455C230.58 241.817 230.541 241.257 230.463 240.775C230.391 240.287 230.284 239.87 230.141 239.525C229.997 239.18 229.815 238.9 229.594 238.686C229.379 238.471 229.128 238.314 228.842 238.217C228.562 238.113 228.246 238.061 227.895 238.061C227.465 238.061 227.084 238.142 226.752 238.305C226.42 238.461 226.14 238.712 225.912 239.057C225.691 239.402 225.521 239.854 225.404 240.414C225.287 240.974 225.229 241.654 225.229 242.455V245.219C225.229 245.857 225.264 246.42 225.336 246.908C225.414 247.396 225.528 247.82 225.678 248.178C225.827 248.529 226.01 248.819 226.225 249.047C226.439 249.275 226.687 249.444 226.967 249.555C227.253 249.659 227.569 249.711 227.914 249.711C228.357 249.711 228.744 249.626 229.076 249.457C229.408 249.288 229.685 249.024 229.906 248.666C230.134 248.301 230.303 247.836 230.414 247.27C230.525 246.697 230.58 246.013 230.58 245.219ZM240.658 236.703V251H238.852V238.959L235.209 240.287V238.656L240.375 236.703H240.658Z" fill="white"/>
<circle cx="437.5" cy="241.5" r="17.5" fill="#C96412"/>
<circle cx="419.5" cy="241.5" r="17.5" fill="#BE0716"/>
</g>
<defs>
<filter id="filter0_d_101_2093" x="0" y="0" width="556" height="358" filterUnits="userSpaceOnUse" color-interpolation-filters="sRGB">
<feFlood flood-opacity="0" result="BackgroundImageFix"/>
<feColorMatrix in="SourceAlpha" type="matrix" values="0 0 0 0 0 0 0 0 0 0 0 0 0 0 0 0 0 0 127 0" result="hardAlpha"/>
<feOffset dx="15" dy="13"/>
<feGaussianBlur stdDeviation="22.5"/>
<feComposite in2="hardAlpha" operator="out"/>
<feColorMatrix type="matrix" values="0 0 0 0 0 0 0 0 0 0 0 0 0 0 0 0 0 0 0.49 0"/>
<feBlend mode="normal" in2="BackgroundImageFix" result="effect1_dropShadow_101_2093"/>
<feBlend mode="normal" in="SourceGraphic" in2="effect1_dropShadow_101_2093" result="shape"/>
</filter>
</defs>
</svg>
