<svg width="27" height="27" viewBox="0 0 87 87" fill="none" xmlns="http://www.w3.org/2000/svg">
<circle cx="7.5" cy="7.5" r="7.5" transform="matrix(1 0 0 -1 0 15)" fill="#D3E2F4"/>
<circle cx="7.5" cy="7.5" r="7.5" transform="matrix(1 0 0 -1 0 33)" fill="#D3E2F4"/>
<circle cx="7.5" cy="7.5" r="7.5" transform="matrix(1 0 0 -1 0 51)" fill="#D3E2F4"/>
<circle cx="7.5" cy="7.5" r="7.5" transform="matrix(1 0 0 -1 0 69)" fill="#D3E2F4"/>
<circle cx="7.5" cy="7.5" r="7.5" transform="matrix(1 0 0 -1 0 87)" fill="#D3E2F4"/>
<circle cx="7.5" cy="7.5" r="7.5" transform="matrix(1 0 0 -1 18 15)" fill="#D3E2F4"/>
<circle cx="7.5" cy="7.5" r="7.5" transform="matrix(1 0 0 -1 18 33)" fill="#D3E2F4"/>
<circle cx="7.5" cy="7.5" r="7.5" transform="matrix(1 0 0 -1 18 51)" fill="#D3E2F4"/>
<circle cx="7.5" cy="7.5" r="7.5" transform="matrix(1 0 0 -1 18 69)" fill="#D3E2F4"/>
<circle cx="7.5" cy="7.5" r="7.5" transform="matrix(1 0 0 -1 18 87)" fill="#D3E2F4"/>
<circle cx="7.5" cy="7.5" r="7.5" transform="matrix(1 0 0 -1 36 15)" fill="#D3E2F4"/>
<circle cx="7.5" cy="7.5" r="7.5" transform="matrix(1 0 0 -1 36 33)" fill="#D3E2F4"/>
<circle cx="7.5" cy="7.5" r="7.5" transform="matrix(1 0 0 -1 36 51)" fill="#D3E2F4"/>
<circle cx="7.5" cy="7.5" r="7.5" transform="matrix(1 0 0 -1 36 69)" fill="#D3E2F4"/>
<circle cx="7.5" cy="7.5" r="7.5" transform="matrix(1 0 0 -1 36 87)" fill="#D3E2F4"/>
<circle cx="7.5" cy="7.5" r="7.5" transform="matrix(1 0 0 -1 54 15)" fill="#D3E2F4"/>
<circle cx="7.5" cy="7.5" r="7.5" transform="matrix(1 0 0 -1 54 33)" fill="#D3E2F4"/>
<circle cx="7.5" cy="7.5" r="7.5" transform="matrix(1 0 0 -1 54 51)" fill="#D3E2F4"/>
<circle cx="7.5" cy="7.5" r="7.5" transform="matrix(1 0 0 -1 54 69)" fill="#D3E2F4"/>
<circle cx="7.5" cy="7.5" r="7.5" transform="matrix(1 0 0 -1 54 87)" fill="#D3E2F4"/>
<circle cx="7.5" cy="7.5" r="7.5" transform="matrix(1 0 0 -1 72 15)" fill="#D3E2F4"/>
<circle cx="7.5" cy="7.5" r="7.5" transform="matrix(1 0 0 -1 72 33)" fill="#D3E2F4"/>
<circle cx="7.5" cy="7.5" r="7.5" transform="matrix(1 0 0 -1 72 51)" fill="#D3E2F4"/>
<circle cx="7.5" cy="7.5" r="7.5" transform="matrix(1 0 0 -1 72 69)" fill="#D3E2F4"/>
<circle cx="7.5" cy="7.5" r="7.5" transform="matrix(1 0 0 -1 72 87)" fill="#D3E2F4"/>
</svg>
